<?xml version="1.0" standalone="no"?>
<!DOCTYPE svg PUBLIC "-//W3C//DTD SVG 20010904//EN"
 "http://www.w3.org/TR/2001/REC-SVG-20010904/DTD/svg10.dtd">
<svg version="1.0" xmlns="http://www.w3.org/2000/svg"
 width="1024.000000pt" height="1024.000000pt" viewBox="0 0 1024.000000 1024.000000"
 preserveAspectRatio="xMidYMid meet">
<metadata>
Created by potrace 1.14, written by Peter Selinger 2001-2017
</metadata>
<g transform="translate(0.000000,1024.000000) scale(0.100000,-0.100000)"
fill="#000000" stroke="none">
<path d="M2575 8936 c-44 -19 -224 -93 -400 -165 -176 -73 -334 -139 -352
-147 -17 -8 -34 -14 -37 -14 -3 0 -25 -9 -49 -19 -23 -11 -120 -52 -216 -91
-206 -85 -204 -84 -225 -127 -14 -30 -16 -122 -13 -868 l2 -835 30 -28 c17
-16 73 -46 125 -67 52 -21 109 -44 125 -51 17 -7 188 -77 380 -155 374 -151
658 -267 715 -291 40 -17 89 -17 122 0 13 6 133 56 268 111 218 88 739 300
903 367 34 14 71 29 82 34 11 5 29 11 41 14 11 4 34 20 50 37 l29 30 3 825 c2
796 2 825 -17 862 -37 71 2 53 -726 347 -99 40 -286 116 -414 169 -277 113
-295 116 -426 62z"/>
<path d="M7200 8864 c-140 -58 -268 -111 -285 -119 -16 -7 -196 -81 -400 -165
-203 -83 -377 -156 -386 -160 -9 -5 -24 -25 -33 -44 -14 -31 -16 -116 -16
-845 0 -885 -1 -864 57 -894 15 -8 80 -36 143 -61 63 -26 124 -50 135 -55 11
-5 36 -16 57 -25 20 -9 39 -16 42 -16 3 0 25 -8 49 -19 23 -10 87 -37 142 -59
55 -22 154 -63 220 -90 66 -27 190 -77 275 -112 85 -34 178 -73 206 -85 29
-13 66 -26 83 -30 17 -4 31 -11 31 -16 0 -14 21 -7 180 58 177 72 202 82 222
93 10 6 23 10 28 10 6 0 30 9 53 19 38 17 394 163 557 228 36 14 79 31 95 38
17 7 73 31 125 53 144 60 148 62 165 97 13 29 15 133 15 844 0 778 -1 813 -19
849 -10 20 -30 46 -43 58 -12 12 -126 63 -253 114 -126 51 -248 101 -270 110
-38 16 -191 78 -300 122 -27 11 -63 26 -80 33 -16 7 -120 50 -230 94 -267 108
-238 109 -565 -25z"/>
<path d="M4561 7661 c-50 -27 -74 -67 -77 -129 -5 -102 42 -158 139 -168 135
-15 217 112 155 239 -34 68 -142 97 -217 58z"/>
<path d="M5520 7659 c-55 -25 -84 -84 -76 -156 3 -29 13 -65 22 -79 49 -74
191 -82 255 -15 42 44 48 153 12 208 -39 59 -134 77 -213 42z"/>
<path d="M6650 5965 c-50 -22 -83 -77 -83 -139 0 -67 14 -98 57 -131 71 -54
185 -30 232 49 28 47 23 127 -10 170 -15 20 -36 41 -47 46 -34 19 -111 21
-149 5z"/>
<path d="M5870 5622 c-139 -48 -138 -265 3 -303 84 -22 173 16 203 88 33 77
10 149 -62 193 -34 21 -112 33 -144 22z"/>
<path d="M5085 5271 c-65 -16 -96 -46 -115 -111 -13 -45 6 -125 36 -155 31
-31 92 -49 136 -41 18 3 36 6 41 6 4 -1 21 7 37 17 56 33 88 140 58 196 -34
65 -121 105 -193 88z"/>
<path d="M4256 4915 c-76 -26 -113 -88 -103 -172 9 -84 74 -137 157 -130 72 7
92 15 129 51 27 28 35 44 39 85 4 43 1 57 -22 91 -44 67 -130 99 -200 75z"/>
<path d="M3431 4552 c-50 -25 -74 -63 -79 -126 -8 -99 54 -168 152 -168 90 0
163 81 154 172 -3 26 -14 61 -26 77 -42 60 -133 80 -201 45z"/>
<path d="M7478 4170 c-21 -4 -55 -14 -75 -23 -68 -29 -357 -149 -403 -167 -57
-22 -335 -137 -377 -156 -17 -8 -34 -14 -37 -14 -3 0 -25 -9 -49 -19 -23 -11
-120 -52 -216 -91 -96 -40 -183 -77 -193 -83 -49 -31 -48 -18 -48 -892 0 -802
0 -818 20 -850 23 -37 30 -41 230 -120 80 -32 168 -67 195 -79 28 -13 66 -28
85 -35 19 -8 49 -19 65 -26 17 -7 210 -86 430 -175 220 -89 408 -166 417 -171
16 -8 181 53 393 146 17 7 89 36 160 65 72 29 149 61 172 71 23 10 47 19 53
19 5 0 18 5 28 10 9 6 123 53 252 105 129 53 244 100 255 105 11 5 29 11 41
14 11 4 34 20 50 37 l29 30 3 822 c2 768 1 825 -15 862 -18 40 -41 65 -78 84
-18 10 -261 109 -875 357 -129 53 -248 102 -265 109 -124 56 -194 74 -247 65z"/>
<path d="M2475 4094 c-99 -41 -189 -78 -200 -83 -11 -6 -110 -46 -220 -91
-110 -45 -214 -88 -232 -96 -17 -8 -34 -14 -37 -14 -3 0 -25 -9 -49 -19 -23
-11 -120 -52 -216 -91 -96 -40 -183 -77 -193 -83 -49 -31 -49 -33 -46 -919 l3
-828 30 -28 c18 -17 82 -50 155 -79 274 -110 694 -281 745 -303 11 -5 110 -45
220 -90 110 -44 209 -85 219 -91 44 -26 89 -17 236 43 195 80 212 87 232 98
10 6 23 10 28 10 6 0 30 9 53 19 23 11 89 38 147 61 58 23 123 50 145 59 22
10 60 26 85 35 25 10 54 22 65 27 68 29 414 168 431 173 11 3 34 20 50 37 l29
30 3 825 c2 796 2 825 -17 862 -10 20 -30 46 -43 58 -12 12 -131 65 -263 119
-132 53 -332 135 -445 181 -113 45 -299 121 -415 168 -271 111 -258 111 -500
10z"/>
<path d="M4561 2861 c-50 -27 -74 -67 -77 -129 -5 -102 42 -158 139 -168 135
-15 217 112 155 239 -34 68 -142 97 -217 58z"/>
<path d="M5525 2863 c-55 -29 -74 -58 -82 -130 -14 -125 110 -208 232 -154 61
27 89 82 81 158 -3 29 -13 65 -22 79 -36 55 -146 79 -209 47z"/>
</g>
</svg>
